%FSLAX25Y25*%
%MOIN*%
G70*
G01*
G75*
G04 Layer_Physical_Order=2*
G04 Layer_Color=65280*
%ADD10C,0.02500*%
%ADD11C,0.05000*%
%ADD12C,0.06500*%
%ADD13R,0.06500X0.06500*%
%ADD14C,0.16500*%
%ADD15R,0.09000X0.09000*%
%ADD16C,0.09000*%
%ADD17R,0.06500X0.06500*%
G36*
X574059Y575085D02*
X563079Y564106D01*
X562330Y563192D01*
X561772Y562150D01*
X561429Y561019D01*
X561313Y559842D01*
Y544250D01*
X552491D01*
X552219Y544395D01*
X551433Y545455D01*
X551652Y546177D01*
X551783Y547500D01*
X551652Y548823D01*
X551266Y550096D01*
X551029Y550540D01*
Y554460D01*
X551266Y554904D01*
X551652Y556177D01*
X551783Y557500D01*
X551652Y558823D01*
X551266Y560096D01*
X551029Y560540D01*
Y564460D01*
X551266Y564904D01*
X551652Y566177D01*
X551783Y567500D01*
X551652Y568823D01*
X551266Y570096D01*
X551029Y570540D01*
Y574460D01*
X551266Y574904D01*
X551652Y576177D01*
X551681Y576471D01*
X573485D01*
X574059Y575085D01*
D02*
G37*
G36*
X576499Y611531D02*
X576153Y610089D01*
X575949Y607500D01*
X576153Y604911D01*
X576759Y602386D01*
X577753Y599986D01*
X579110Y597772D01*
X580797Y595797D01*
X582772Y594110D01*
X584986Y592753D01*
X587386Y591759D01*
X589911Y591153D01*
X592500Y590949D01*
X595089Y591153D01*
X597614Y591759D01*
X600014Y592753D01*
X601191Y593474D01*
X602500Y592741D01*
Y552259D01*
X601191Y551526D01*
X600014Y552247D01*
X597614Y553241D01*
X595089Y553847D01*
X592500Y554051D01*
X589911Y553847D01*
X587386Y553241D01*
X584986Y552247D01*
X582772Y550890D01*
X580797Y549203D01*
X579110Y547228D01*
X577753Y545014D01*
X576759Y542615D01*
X576153Y540089D01*
X575949Y537500D01*
X575986Y537031D01*
X575425Y536772D01*
X574123Y537518D01*
X573995Y538823D01*
X573609Y540096D01*
X573372Y540540D01*
Y557345D01*
X581956Y565930D01*
X583444Y565746D01*
X583781Y565184D01*
X583734Y565096D01*
X583348Y563823D01*
X583217Y562500D01*
X583348Y561177D01*
X583734Y559904D01*
X584360Y558732D01*
X585204Y557704D01*
X586232Y556860D01*
X587404Y556234D01*
X588677Y555848D01*
X590000Y555717D01*
X591323Y555848D01*
X592596Y556234D01*
X593768Y556860D01*
X594796Y557704D01*
X595640Y558732D01*
X596266Y559904D01*
X596652Y561177D01*
X596783Y562500D01*
X596652Y563823D01*
X596266Y565096D01*
X595640Y566268D01*
X594796Y567296D01*
Y567704D01*
X595640Y568732D01*
X596266Y569904D01*
X596652Y571177D01*
X596783Y572500D01*
X596652Y573823D01*
X596266Y575096D01*
X596659Y575750D01*
X596750D01*
Y589250D01*
X583250D01*
Y588529D01*
X551681D01*
X551652Y588823D01*
X551266Y590096D01*
X551029Y590540D01*
Y594460D01*
X551266Y594904D01*
X551652Y596177D01*
X551709Y596752D01*
X551750Y596750D01*
X551750Y596750D01*
X551750Y596750D01*
X555786D01*
X556324Y596587D01*
X557500Y596471D01*
X558676Y596587D01*
X559214Y596750D01*
X563250D01*
Y596818D01*
X564595Y597481D01*
X564600Y597477D01*
X565999Y596898D01*
X567500Y596700D01*
X569001Y596898D01*
X570400Y597477D01*
X571601Y598399D01*
X572523Y599600D01*
X573102Y600999D01*
X573300Y602500D01*
X573102Y604001D01*
X572523Y605400D01*
X571601Y606601D01*
X570400Y607523D01*
X569001Y608102D01*
X567500Y608300D01*
X565999Y608102D01*
X564600Y607523D01*
X564595Y607519D01*
X563250Y608182D01*
Y608250D01*
X560276D01*
X556763Y611763D01*
D01*
X556763Y611763D01*
X575570Y612709D01*
X576499Y611531D01*
D02*
G37*
G36*
X575856Y518118D02*
X575215Y516761D01*
X575000Y516783D01*
X573677Y516652D01*
X572404Y516266D01*
X571232Y515640D01*
X570204Y514796D01*
X569360Y513768D01*
X568734Y512596D01*
X568348Y511323D01*
X568217Y510000D01*
X568348Y508677D01*
X568734Y507404D01*
X568781Y507316D01*
X568010Y506029D01*
X556750D01*
Y516750D01*
X556029D01*
Y522500D01*
X555913Y523676D01*
X555570Y524807D01*
X555013Y525849D01*
X554263Y526763D01*
X551029Y529997D01*
Y530750D01*
X563224D01*
X575856Y518118D01*
D02*
G37*
G36*
X602500Y522741D02*
Y516750D01*
X601750D01*
Y516750D01*
X591029D01*
Y517500D01*
X590913Y518676D01*
X590570Y519807D01*
X590570Y519807D01*
X590570Y519807D01*
X590341Y521119D01*
D01*
X592500Y520949D01*
X595089Y521153D01*
X597614Y521759D01*
X600014Y522753D01*
X601191Y523474D01*
X602500Y522741D01*
D02*
G37*
G36*
X520750Y628250D02*
X527502D01*
X527739Y627679D01*
X527918Y626779D01*
X527604Y626649D01*
X526612Y625888D01*
X519068Y618343D01*
X518388Y618388D01*
Y618388D01*
Y618388D01*
X518388Y618388D01*
X505596Y631179D01*
X505640Y631232D01*
X506266Y632404D01*
X506652Y633677D01*
X506783Y635000D01*
X506652Y636323D01*
X506266Y637596D01*
X505640Y638768D01*
X505735Y638971D01*
X520750D01*
Y628250D01*
D02*
G37*
G36*
X602500Y631626D02*
Y622259D01*
X601191Y621526D01*
X600014Y622247D01*
X597614Y623241D01*
X595089Y623847D01*
X592500Y624051D01*
X591972Y625197D01*
X594993Y628218D01*
X595000Y628217D01*
X596323Y628348D01*
X597596Y628734D01*
X598768Y629360D01*
X599796Y630204D01*
X600640Y631232D01*
X601045Y631990D01*
X602500Y631626D01*
D02*
G37*
G36*
Y638374D02*
X601045Y638010D01*
X600640Y638768D01*
X599796Y639796D01*
X598768Y640640D01*
X597596Y641266D01*
X596323Y641652D01*
X595000Y641783D01*
X593677Y641652D01*
X592404Y641266D01*
X591232Y640640D01*
X590204Y639796D01*
X589796D01*
X588768Y640640D01*
X587596Y641266D01*
X586323Y641652D01*
X585000Y641783D01*
X583677Y641652D01*
X582404Y641266D01*
X581750Y641659D01*
Y641750D01*
X581430D01*
X581029Y641990D01*
Y645000D01*
X580913Y646176D01*
X580570Y647307D01*
X580686Y647500D01*
X602500D01*
Y638374D01*
D02*
G37*
G36*
X434123Y646295D02*
X434087Y646176D01*
X433971Y645000D01*
Y640500D01*
X430800D01*
Y624500D01*
X446800D01*
Y625017D01*
X448087Y625788D01*
X449424Y625073D01*
X450932Y624616D01*
X452500Y624461D01*
X454068Y624616D01*
X455576Y625073D01*
X456966Y625816D01*
X458184Y626816D01*
X459184Y628034D01*
X459927Y629424D01*
X460384Y630932D01*
X460539Y632500D01*
X460384Y634068D01*
X459927Y635576D01*
X459184Y636966D01*
X458184Y638184D01*
X458466Y638971D01*
X473250D01*
Y628250D01*
X486750D01*
Y628341D01*
X487404Y628734D01*
X488677Y628348D01*
X490000Y628217D01*
X491323Y628348D01*
X492596Y628734D01*
X493768Y629360D01*
Y629360D01*
X493768Y629360D01*
X494033Y629478D01*
X495346Y628959D01*
X495372Y628760D01*
X495711Y627943D01*
X495851Y627604D01*
X496612Y626612D01*
X496612Y626612D01*
X496612Y626612D01*
X510209Y613016D01*
Y552500D01*
X510372Y551260D01*
X510711Y550443D01*
X510851Y550105D01*
X511612Y549112D01*
X526612Y534112D01*
X527604Y533351D01*
X528760Y532872D01*
X530000Y532709D01*
X530200D01*
X530204Y532704D01*
X531232Y531860D01*
X532404Y531234D01*
X533677Y530848D01*
X535000Y530717D01*
X536323Y530848D01*
X537596Y531234D01*
X537684Y531281D01*
X538971Y530510D01*
Y527500D01*
X538971Y527500D01*
X538971D01*
X539087Y526324D01*
X539430Y525193D01*
X539430Y525193D01*
X539430Y525193D01*
X539987Y524151D01*
X540737Y523237D01*
X540737Y523237D01*
X540737Y523237D01*
X543971Y520003D01*
Y516990D01*
X543570Y516750D01*
X543250D01*
Y516659D01*
X542596Y516266D01*
X541323Y516652D01*
X540000Y516783D01*
X538677Y516652D01*
X537404Y516266D01*
X536232Y515640D01*
X535204Y514796D01*
X534796D01*
X533768Y515640D01*
X532596Y516266D01*
X531323Y516652D01*
X530000Y516783D01*
X528677Y516652D01*
X527404Y516266D01*
X526232Y515640D01*
X525204Y514796D01*
X524360Y513768D01*
X523734Y512596D01*
X523348Y511323D01*
X523217Y510000D01*
X523348Y508677D01*
X523734Y507404D01*
X523781Y507316D01*
X523010Y506029D01*
X511750D01*
Y516750D01*
X498250D01*
Y516659D01*
X497596Y516266D01*
X496323Y516652D01*
X495000Y516783D01*
X493677Y516652D01*
X492404Y516266D01*
X491232Y515640D01*
X490204Y514796D01*
X489796D01*
X488768Y515640D01*
X487596Y516266D01*
X486323Y516652D01*
X485000Y516783D01*
X483677Y516652D01*
X482404Y516266D01*
X481232Y515640D01*
X480204Y514796D01*
X479360Y513768D01*
X478734Y512596D01*
X478348Y511323D01*
X478217Y510000D01*
X478348Y508677D01*
X478734Y507404D01*
X478781Y507316D01*
X478010Y506029D01*
X466750D01*
Y516750D01*
X453250D01*
Y516659D01*
X452596Y516266D01*
X451323Y516652D01*
X450000Y516783D01*
X448677Y516652D01*
X447404Y516266D01*
X446232Y515640D01*
X445204Y514796D01*
X444796D01*
X443768Y515640D01*
X442596Y516266D01*
X441323Y516652D01*
X440000Y516783D01*
X438677Y516652D01*
X437404Y516266D01*
X436232Y515640D01*
X435204Y514796D01*
X434360Y513768D01*
X433734Y512596D01*
X433348Y511323D01*
X433217Y510000D01*
X433348Y508677D01*
X433734Y507404D01*
X434360Y506232D01*
X435204Y505204D01*
X436232Y504360D01*
X437404Y503734D01*
X438677Y503348D01*
X440000Y503217D01*
X441323Y503348D01*
X442596Y503734D01*
X443768Y504360D01*
X444796Y505204D01*
X445204D01*
X446232Y504360D01*
X447404Y503734D01*
X448677Y503348D01*
X450000Y503217D01*
X451323Y503348D01*
X452596Y503734D01*
X453250Y503341D01*
Y503250D01*
X453570D01*
X453971Y503010D01*
Y500000D01*
X454087Y498824D01*
X454123Y498705D01*
X453229Y497500D01*
X427259D01*
X426526Y498809D01*
X427247Y499986D01*
X428241Y502386D01*
X428847Y504911D01*
X429051Y507500D01*
X428847Y510089D01*
X428241Y512614D01*
X427247Y515014D01*
X425890Y517228D01*
X424203Y519203D01*
X422228Y520890D01*
X420014Y522247D01*
X417615Y523241D01*
X415089Y523847D01*
X412500Y524051D01*
X409911Y523847D01*
X407385Y523241D01*
X404986Y522247D01*
X403809Y521526D01*
X402500Y522259D01*
Y622741D01*
X403809Y623474D01*
X404986Y622753D01*
X407385Y621759D01*
X409911Y621153D01*
X412500Y620949D01*
X415089Y621153D01*
X417615Y621759D01*
X420014Y622753D01*
X422228Y624110D01*
X424203Y625797D01*
X425890Y627772D01*
X427247Y629986D01*
X428241Y632385D01*
X428847Y634911D01*
X429051Y637500D01*
X428847Y640089D01*
X428241Y642615D01*
X427247Y645014D01*
X425890Y647228D01*
X426015Y647500D01*
X433229D01*
X434123Y646295D01*
D02*
G37*
G36*
X568250Y628250D02*
X579515D01*
X580089Y626864D01*
X575516Y622291D01*
X548526D01*
X547952Y623677D01*
X550888Y626612D01*
X551649Y627604D01*
X552128Y628760D01*
X552291Y630000D01*
Y630200D01*
X552296Y630204D01*
X553140Y631232D01*
X553766Y632404D01*
X554152Y633677D01*
X554283Y635000D01*
X554152Y636323D01*
X553766Y637596D01*
X553140Y638768D01*
X553235Y638971D01*
X568250D01*
Y628250D01*
D02*
G37*
D10*
X515000Y552500D02*
Y615000D01*
Y552500D02*
X530000Y537500D01*
X500000Y630000D02*
X515000Y615000D01*
X530000Y537500D02*
X535000D01*
X500000Y630000D02*
Y635000D01*
X540000Y622500D02*
X547500Y630000D01*
X520000Y557500D02*
Y612500D01*
Y557500D02*
X530000Y547500D01*
X547500Y630000D02*
Y635000D01*
X530000Y622500D02*
X540000D01*
X520000Y612500D02*
X530000Y622500D01*
Y547500D02*
X535000D01*
X530000Y557500D02*
X535000D01*
X525000Y562500D02*
Y610000D01*
Y562500D02*
X530000Y557500D01*
X525000Y610000D02*
X532500Y617500D01*
X577500D01*
X595000Y635000D01*
D11*
X545000Y527500D02*
Y607500D01*
X550000Y500000D02*
Y522500D01*
X460000Y500000D02*
X595000D01*
X545000Y582500D02*
X590000D01*
X545000Y537500D02*
X557500D01*
X505000Y500000D02*
Y510000D01*
X552500Y607500D02*
X557500Y602500D01*
X545000Y607500D02*
X552500D01*
X480000Y635000D02*
Y645000D01*
X575000Y635000D02*
Y645000D01*
X438800Y632500D02*
Y633800D01*
X440000Y635000D01*
Y645000D01*
X527500Y635000D02*
Y645000D01*
X440000D02*
X575000D01*
X460000Y500000D02*
Y510000D01*
X595000Y500000D02*
Y510000D01*
X585000D02*
Y517500D01*
X567343Y559842D02*
X580000Y572500D01*
X590000D01*
X567343Y535157D02*
X585000Y517500D01*
X567343Y535157D02*
Y559842D01*
X545000Y527500D02*
X550000Y522500D01*
D12*
X567343Y537500D02*
D03*
X567500Y602500D02*
D03*
X535000Y577500D02*
D03*
X545000D02*
D03*
Y587500D02*
D03*
X535000Y607500D02*
D03*
X545000Y597500D02*
D03*
X535000D02*
D03*
Y587500D02*
D03*
X545000Y567500D02*
D03*
X535000D02*
D03*
X545000Y557500D02*
D03*
X535000D02*
D03*
X545000Y547500D02*
D03*
X535000D02*
D03*
X545000Y537500D02*
D03*
X535000D02*
D03*
X450000Y510000D02*
D03*
X440000D02*
D03*
X495000D02*
D03*
X485000D02*
D03*
X540000D02*
D03*
X530000D02*
D03*
X585000D02*
D03*
X575000D02*
D03*
X590000Y572500D02*
D03*
Y562500D02*
D03*
X585000Y635000D02*
D03*
X595000D02*
D03*
X537500D02*
D03*
X547500D02*
D03*
X490000D02*
D03*
X500000D02*
D03*
D13*
X557500Y537500D02*
D03*
Y602500D02*
D03*
X545000Y607500D02*
D03*
X590000Y582500D02*
D03*
D14*
X412500Y637500D02*
D03*
Y507500D02*
D03*
X592500Y537500D02*
D03*
Y607500D02*
D03*
D15*
X438800Y632500D02*
D03*
D16*
X452500D02*
D03*
D17*
X460000Y510000D02*
D03*
X505000D02*
D03*
X550000D02*
D03*
X595000D02*
D03*
X575000Y635000D02*
D03*
X527500D02*
D03*
X480000D02*
D03*
M02*
