%FSLAX25Y25*%
%MOIN*%
G70*
G01*
G75*
G04 Layer_Color=33789*
%ADD10C,0.02500*%
%ADD11C,0.05000*%
%ADD12C,0.06500*%
%ADD13R,0.06500X0.06500*%
%ADD14C,0.16500*%
%ADD15R,0.09000X0.09000*%
%ADD16C,0.09000*%
%ADD17R,0.06500X0.06500*%
%ADD18C,0.01000*%
%ADD19C,0.01200*%
D18*
X400000Y495000D02*
X605000D01*
Y650000D01*
X400000D02*
X605000D01*
X400000Y495000D02*
Y650000D01*
X431668Y605832D02*
X434167D01*
X435000Y604999D01*
Y603333D01*
X434167Y602500D01*
X431668D01*
X421671D02*
X425003D01*
X421671Y605832D01*
Y606665D01*
X422504Y607498D01*
X424170D01*
X425003Y606665D01*
X420005D02*
X419172Y607498D01*
X417506D01*
X416673Y606665D01*
Y603333D01*
X417506Y602500D01*
X419172D01*
X420005Y603333D01*
Y606665D01*
X411674Y602500D02*
X415006D01*
X411674Y605832D01*
Y606665D01*
X412507Y607498D01*
X414173D01*
X415006Y606665D01*
X410008D02*
X409175Y607498D01*
X407509D01*
X406676Y606665D01*
Y603333D01*
X407509Y602500D01*
X409175D01*
X410008Y603333D01*
Y606665D01*
X482500Y592500D02*
X480001D01*
X479168Y593333D01*
X480001Y594166D01*
X481667D01*
X482500Y594999D01*
X481667Y595832D01*
X479168D01*
X477502Y590834D02*
Y595832D01*
X475002D01*
X474169Y594999D01*
Y593333D01*
X475002Y592500D01*
X477502D01*
X471670Y595832D02*
X470004D01*
X469171Y594999D01*
Y592500D01*
X471670D01*
X472503Y593333D01*
X471670Y594166D01*
X469171D01*
X464173Y595832D02*
X466672D01*
X467505Y594999D01*
Y593333D01*
X466672Y592500D01*
X464173D01*
X460007D02*
X461673D01*
X462506Y593333D01*
Y594999D01*
X461673Y595832D01*
X460007D01*
X459174Y594999D01*
Y594166D01*
X462506D01*
X457508Y594999D02*
X454176D01*
X450010Y592500D02*
X451677D01*
X452510Y593333D01*
Y594999D01*
X451677Y595832D01*
X450010D01*
X449178Y594999D01*
Y594166D01*
X452510D01*
X447511Y592500D02*
X445845D01*
X446678D01*
Y595832D01*
X447511D01*
X441680Y590834D02*
X440847D01*
X440014Y591667D01*
Y595832D01*
X442513D01*
X443346Y594999D01*
Y593333D01*
X442513Y592500D01*
X440014D01*
X438348Y597498D02*
Y592500D01*
Y594999D01*
X437515Y595832D01*
X435848D01*
X435015Y594999D01*
Y592500D01*
X432516Y596665D02*
Y595832D01*
X433349D01*
X431683D01*
X432516D01*
Y593333D01*
X431683Y592500D01*
X429184D02*
Y593333D01*
X428351D01*
Y592500D01*
X429184D01*
X421686Y595832D02*
X424186D01*
X425019Y594999D01*
Y593333D01*
X424186Y592500D01*
X421686D01*
X419187D02*
X417521D01*
X416688Y593333D01*
Y594999D01*
X417521Y595832D01*
X419187D01*
X420020Y594999D01*
Y593333D01*
X419187Y592500D01*
X415022D02*
Y595832D01*
X414189D01*
X413356Y594999D01*
Y592500D01*
Y594999D01*
X412523Y595832D01*
X411690Y594999D01*
Y592500D01*
X490000Y565832D02*
Y562500D01*
Y564166D01*
X489167Y564999D01*
X488334Y565832D01*
X487501D01*
X482502Y562500D02*
X484169D01*
X485002Y563333D01*
Y564999D01*
X484169Y565832D01*
X482502D01*
X481669Y564999D01*
Y564166D01*
X485002D01*
X480003Y565832D02*
X478337Y562500D01*
X476671Y565832D01*
X475005Y562500D02*
X473339D01*
X474172D01*
Y567498D01*
X475005Y566665D01*
X470840Y562500D02*
Y563333D01*
X470007D01*
Y562500D01*
X470840D01*
X466674Y566665D02*
X465841Y567498D01*
X464175D01*
X463342Y566665D01*
Y563333D01*
X464175Y562500D01*
X465841D01*
X466674Y563333D01*
Y566665D01*
X461676Y562500D02*
X460010D01*
X460843D01*
Y567498D01*
X461676Y566665D01*
X485000Y607498D02*
Y602500D01*
X482501D01*
X481668Y603333D01*
Y604166D01*
X482501Y604999D01*
X485000D01*
X482501D01*
X481668Y605832D01*
Y606665D01*
X482501Y607498D01*
X485000D01*
X480002Y602500D02*
Y607498D01*
X477502D01*
X476669Y606665D01*
Y604999D01*
X477502Y604166D01*
X480002D01*
X478336D02*
X476669Y602500D01*
X475003Y607498D02*
X473337D01*
X474170D01*
Y602500D01*
X475003D01*
X473337D01*
X470838D02*
Y605832D01*
X469172Y607498D01*
X467506Y605832D01*
Y602500D01*
Y604999D01*
X470838D01*
X465839Y602500D02*
Y607498D01*
X462507Y602500D01*
Y607498D01*
X452510Y606665D02*
X453344Y607498D01*
X455010D01*
X455843Y606665D01*
Y603333D01*
X455010Y602500D01*
X453344D01*
X452510Y603333D01*
X448345Y607498D02*
X450011D01*
X450844Y606665D01*
Y603333D01*
X450011Y602500D01*
X448345D01*
X447512Y603333D01*
Y606665D01*
X448345Y607498D01*
X445846D02*
X442514Y602500D01*
Y607498D02*
X445846Y602500D01*
D19*
X486001Y578498D02*
X490000D01*
Y575499D01*
X488001Y576499D01*
X487001D01*
X486001Y575499D01*
Y573500D01*
X487001Y572500D01*
X489000D01*
X490000Y573500D01*
X484002Y577498D02*
X483002Y578498D01*
X481003D01*
X480003Y577498D01*
Y573500D01*
X481003Y572500D01*
X483002D01*
X484002Y573500D01*
Y577498D01*
X474005Y578498D02*
X478004D01*
Y575499D01*
X476005Y576499D01*
X475005D01*
X474005Y575499D01*
Y573500D01*
X475005Y572500D01*
X477004D01*
X478004Y573500D01*
X472006Y572500D02*
X470007D01*
X471006D01*
Y578498D01*
X472006Y577498D01*
X467007Y578498D02*
X463009D01*
Y577498D01*
X467007Y573500D01*
Y572500D01*
X461009Y577498D02*
X460010Y578498D01*
X458010D01*
X457011Y577498D01*
Y576499D01*
X458010Y575499D01*
X457011Y574499D01*
Y573500D01*
X458010Y572500D01*
X460010D01*
X461009Y573500D01*
Y574499D01*
X460010Y575499D01*
X461009Y576499D01*
Y577498D01*
X460010Y575499D02*
X458010D01*
X498501Y545998D02*
X502500D01*
Y542999D01*
X500501D01*
X502500D01*
Y540000D01*
X496502D02*
Y543999D01*
X494503Y545998D01*
X492503Y543999D01*
Y540000D01*
Y542999D01*
X496502D01*
X490504Y545998D02*
Y540000D01*
X487505D01*
X486505Y541000D01*
Y544998D01*
X487505Y545998D01*
X490504D01*
X480507D02*
X484506D01*
Y540000D01*
X480507D01*
X484506Y542999D02*
X482507D01*
X474509Y544998D02*
X475509Y545998D01*
X477508D01*
X478508Y544998D01*
Y541000D01*
X477508Y540000D01*
X475509D01*
X474509Y541000D01*
X472510Y540000D02*
Y543999D01*
X470510Y545998D01*
X468511Y543999D01*
Y540000D01*
Y542999D01*
X472510D01*
X466512Y540000D02*
Y545998D01*
X462513Y540000D01*
Y545998D01*
X460514D02*
Y540000D01*
X457514D01*
X456515Y541000D01*
Y544998D01*
X457514Y545998D01*
X460514D01*
X454516D02*
Y544998D01*
X452516Y542999D01*
X450517Y544998D01*
Y545998D01*
X452516Y542999D02*
Y540000D01*
X442519Y545998D02*
Y540000D01*
X439520D01*
X438521Y541000D01*
Y544998D01*
X439520Y545998D01*
X442519D01*
X436521D02*
X434522D01*
X435522D01*
Y540000D01*
X436521D01*
X434522D01*
X427524Y544998D02*
X428524Y545998D01*
X430523D01*
X431523Y544998D01*
Y543999D01*
X430523Y542999D01*
X428524D01*
X427524Y541999D01*
Y541000D01*
X428524Y540000D01*
X430523D01*
X431523Y541000D01*
X425525Y545998D02*
X421526D01*
X423526D01*
Y540000D01*
X419527D02*
Y545998D01*
X416528D01*
X415528Y544998D01*
Y542999D01*
X416528Y541999D01*
X419527D01*
X417527D02*
X415528Y540000D01*
X410530Y545998D02*
X412529D01*
X413529Y544998D01*
Y541000D01*
X412529Y540000D01*
X410530D01*
X409530Y541000D01*
Y544998D01*
X410530Y545998D01*
M02*
