M48
;Layer_Color=8847372
;FILE_FORMAT=2:5
INCH,LZ
;TYPE=PLATED
T1F00S00C0.03500
T2F00S00C0.05200
T3F00S00C0.12500
%
T01
X0485Y051
X0495
X0505
X053
X054
X055
X0575
X0585
X0595
X0567343Y05375
X05575
X0545
Y05475
Y05575
Y05675
Y05775
X0535
Y05875
X0545
Y05975
Y06075
X0535
Y05975
X05575Y06025
X05675
X059Y05825
Y05725
Y05625
X0535Y05675
Y05575
Y05475
Y05375
X046Y051
X045
X044
X048Y0635
X049
X05
X05275
X05375
X05475
X0575
X0585
X0595
T02
X04388Y06325
X04525
T03
X05925Y05375
Y06075
X04125Y05075
Y06375
M30
