%FSLAX25Y25*%
%MOIN*%
G70*
G01*
G75*
G04 Layer_Physical_Order=1*
G04 Layer_Color=255*
%ADD10C,0.02500*%
%ADD11C,0.05000*%
%ADD12C,0.06500*%
%ADD13R,0.06500X0.06500*%
%ADD14C,0.16500*%
%ADD15R,0.09000X0.09000*%
%ADD16C,0.09000*%
%ADD17R,0.06500X0.06500*%
G36*
X602500Y638374D02*
X601045Y638010D01*
X600640Y638768D01*
X599796Y639796D01*
X598768Y640640D01*
X597596Y641266D01*
X596323Y641652D01*
X595000Y641783D01*
X593677Y641652D01*
X592404Y641266D01*
X591232Y640640D01*
X590204Y639796D01*
X589360Y638768D01*
X588734Y637596D01*
X588348Y636323D01*
X588217Y635000D01*
X588348Y633677D01*
X588734Y632404D01*
X589360Y631232D01*
X590204Y630204D01*
X591232Y629360D01*
X592404Y628734D01*
X593677Y628348D01*
X595000Y628217D01*
X596323Y628348D01*
X597596Y628734D01*
X598768Y629360D01*
X599796Y630204D01*
X600640Y631232D01*
X601045Y631990D01*
X602500Y631626D01*
Y622259D01*
X601191Y621526D01*
X600014Y622247D01*
X597614Y623241D01*
X595089Y623847D01*
X592500Y624051D01*
X589911Y623847D01*
X587386Y623241D01*
X584986Y622247D01*
X582772Y620890D01*
X580797Y619203D01*
X579110Y617228D01*
X577753Y615014D01*
X576759Y612614D01*
X576153Y610089D01*
X575949Y607500D01*
X576153Y604911D01*
X576759Y602386D01*
X577753Y599986D01*
X579110Y597772D01*
X580797Y595797D01*
X582772Y594110D01*
X584986Y592753D01*
X587386Y591759D01*
X589911Y591153D01*
X592500Y590949D01*
X595089Y591153D01*
X597614Y591759D01*
X600014Y592753D01*
X601191Y593474D01*
X602500Y592741D01*
Y552259D01*
X601191Y551526D01*
X600014Y552247D01*
X597614Y553241D01*
X595089Y553847D01*
X592500Y554051D01*
X589911Y553847D01*
X587386Y553241D01*
X584986Y552247D01*
X582772Y550890D01*
X581153Y549508D01*
X579791Y550136D01*
Y555515D01*
X581985Y557709D01*
X585200D01*
X585204Y557704D01*
X586232Y556860D01*
X587404Y556234D01*
X588677Y555848D01*
X590000Y555717D01*
X591323Y555848D01*
X592596Y556234D01*
X593768Y556860D01*
X594796Y557704D01*
X595640Y558732D01*
X596266Y559904D01*
X596652Y561177D01*
X596783Y562500D01*
X596652Y563823D01*
X596266Y565096D01*
X595640Y566268D01*
X594796Y567296D01*
X593768Y568140D01*
X592596Y568766D01*
X591323Y569152D01*
X590000Y569283D01*
X588677Y569152D01*
X587404Y568766D01*
X586232Y568140D01*
X585204Y567296D01*
X585200Y567291D01*
X580000D01*
X578760Y567128D01*
X577604Y566649D01*
X576612Y565888D01*
X571612Y560888D01*
X570851Y559896D01*
X570711Y559557D01*
X570372Y558740D01*
X570209Y557500D01*
X570209Y557500D01*
X570209D01*
X570209Y557500D01*
X570209D01*
Y536984D01*
X565636Y532411D01*
X564250Y532985D01*
Y544250D01*
X552327D01*
X551433Y545455D01*
X551652Y546177D01*
X551783Y547500D01*
X551652Y548823D01*
X551266Y550096D01*
X550640Y551268D01*
X549796Y552296D01*
Y552704D01*
X550640Y553732D01*
X551266Y554904D01*
X551652Y556177D01*
X551783Y557500D01*
X551652Y558823D01*
X551266Y560096D01*
X550640Y561268D01*
X549796Y562296D01*
Y562704D01*
X550640Y563732D01*
X551266Y564904D01*
X551652Y566177D01*
X551783Y567500D01*
X551652Y568823D01*
X551266Y570096D01*
X550640Y571268D01*
X549796Y572296D01*
Y572704D01*
X550640Y573732D01*
X551266Y574904D01*
X551652Y576177D01*
X551783Y577500D01*
X551652Y578823D01*
X551266Y580096D01*
X550640Y581268D01*
X549796Y582296D01*
Y582704D01*
X550640Y583732D01*
X551266Y584904D01*
X551652Y586177D01*
X551783Y587500D01*
X551652Y588823D01*
X551266Y590096D01*
X550640Y591268D01*
X549796Y592296D01*
Y592704D01*
X550640Y593732D01*
X551266Y594904D01*
X551652Y596177D01*
X551709Y596752D01*
X551750Y596750D01*
X551750Y596750D01*
X551750Y596750D01*
X563250D01*
Y608250D01*
X551750D01*
Y614250D01*
X551029D01*
Y620000D01*
X550913Y621176D01*
X550570Y622307D01*
X550013Y623350D01*
X549263Y624263D01*
X549263Y624263D01*
D01*
D01*
D01*
D01*
X549263Y624263D01*
D01*
D01*
X549263D01*
X546763Y626763D01*
X546646Y626859D01*
X547220Y628245D01*
X547500Y628217D01*
X548823Y628348D01*
X550096Y628734D01*
X551268Y629360D01*
X552296Y630204D01*
X553140Y631232D01*
X553766Y632404D01*
X554152Y633677D01*
X554283Y635000D01*
X554152Y636323D01*
X553766Y637596D01*
X553140Y638768D01*
X552296Y639796D01*
X551268Y640640D01*
X550096Y641266D01*
X548823Y641652D01*
X547500Y641783D01*
X546177Y641652D01*
X544904Y641266D01*
X543732Y640640D01*
X542704Y639796D01*
X541860Y638768D01*
X541234Y637596D01*
X540848Y636323D01*
X540717Y635000D01*
X540848Y633677D01*
X541234Y632404D01*
X541860Y631232D01*
X542704Y630204D01*
X543732Y629360D01*
D01*
X542500Y628529D01*
X537497D01*
X534250Y631776D01*
Y641750D01*
X520750D01*
Y628250D01*
X521373D01*
X521930Y627693D01*
X521930Y627693D01*
Y627693D01*
X522487Y626650D01*
X523237Y625737D01*
X523237Y625737D01*
X523237Y625737D01*
X530737Y618237D01*
X531650Y617487D01*
X532693Y616930D01*
X533824Y616587D01*
X535000Y616471D01*
X538971D01*
Y614490D01*
X538570Y614250D01*
X538250D01*
Y614159D01*
X537596Y613766D01*
X536323Y614152D01*
X535000Y614283D01*
X533677Y614152D01*
X532404Y613766D01*
X531232Y613140D01*
X530204Y612296D01*
X530200Y612291D01*
X530000D01*
X528760Y612128D01*
X527943Y611789D01*
X527604Y611649D01*
X526612Y610888D01*
X501612Y585888D01*
X500851Y584896D01*
X500711Y584557D01*
X500372Y583740D01*
X500209Y582500D01*
Y534484D01*
X493015Y527291D01*
X447500D01*
X446260Y527128D01*
X445105Y526649D01*
X444112Y525888D01*
X436612Y518388D01*
X435851Y517395D01*
X435711Y517057D01*
X435372Y516240D01*
X435209Y515000D01*
Y514800D01*
X435204Y514796D01*
X434360Y513768D01*
X433734Y512596D01*
X433348Y511323D01*
X433217Y510000D01*
X433348Y508677D01*
X433734Y507404D01*
X434360Y506232D01*
X435204Y505204D01*
X436232Y504360D01*
X437404Y503734D01*
X438677Y503348D01*
X440000Y503217D01*
X441323Y503348D01*
X442596Y503734D01*
X443768Y504360D01*
X444796Y505204D01*
X445640Y506232D01*
X446266Y507404D01*
X446652Y508677D01*
X446783Y510000D01*
X446652Y511323D01*
X446266Y512596D01*
X445640Y513768D01*
X445596Y513821D01*
X449484Y517709D01*
X452189D01*
X453250Y516648D01*
Y503250D01*
X466750D01*
Y516648D01*
X466750Y516648D01*
D01*
D01*
D01*
D01*
D01*
D01*
D01*
X466750Y516750D01*
D01*
X467709Y517709D01*
X479137D01*
X479820Y517426D01*
X480464Y516462D01*
X480372Y516240D01*
X480209Y515000D01*
X480209Y515000D01*
X480209D01*
X480209Y515000D01*
X480209D01*
Y514800D01*
X480204Y514796D01*
X479360Y513768D01*
X478734Y512596D01*
X478348Y511323D01*
X478217Y510000D01*
X478348Y508677D01*
X478734Y507404D01*
X479360Y506232D01*
X480204Y505204D01*
X481232Y504360D01*
X482404Y503734D01*
X483677Y503348D01*
X485000Y503217D01*
X486323Y503348D01*
X487596Y503734D01*
X488768Y504360D01*
X489796Y505204D01*
X490640Y506232D01*
X491266Y507404D01*
X491652Y508677D01*
X491783Y510000D01*
X491652Y511323D01*
X491266Y512596D01*
X491334Y512709D01*
X497500D01*
X498250Y512051D01*
Y503250D01*
X511750D01*
Y516750D01*
X505485D01*
X504911Y518136D01*
X512500Y525725D01*
X524404Y513821D01*
X524360Y513768D01*
X523734Y512596D01*
X523348Y511323D01*
X523217Y510000D01*
X523348Y508677D01*
X523734Y507404D01*
X524360Y506232D01*
X525204Y505204D01*
X526232Y504360D01*
X527404Y503734D01*
X528677Y503348D01*
X530000Y503217D01*
X531323Y503348D01*
X532596Y503734D01*
X533768Y504360D01*
X534796Y505204D01*
X535640Y506232D01*
X536266Y507404D01*
X536652Y508677D01*
X536783Y510000D01*
X536652Y511323D01*
X536266Y512596D01*
X535640Y513768D01*
X534796Y514796D01*
X534791Y514800D01*
Y515000D01*
X534628Y516240D01*
X534149Y517395D01*
X534304Y517709D01*
X542189D01*
X543250Y516648D01*
Y503250D01*
X556750D01*
Y516648D01*
X556750Y516648D01*
D01*
D01*
D01*
D01*
D01*
D01*
D01*
X556750Y516750D01*
D01*
X557709Y517709D01*
X565516D01*
X569404Y513821D01*
X569360Y513768D01*
X568734Y512596D01*
X568348Y511323D01*
X568217Y510000D01*
X568348Y508677D01*
X568734Y507404D01*
X569360Y506232D01*
X570204Y505204D01*
X571232Y504360D01*
X572404Y503734D01*
X573677Y503348D01*
X575000Y503217D01*
X576323Y503348D01*
X577596Y503734D01*
X578768Y504360D01*
X579796Y505204D01*
X580640Y506232D01*
X581266Y507404D01*
X581652Y508677D01*
X581783Y510000D01*
X581652Y511323D01*
X581266Y512596D01*
X580640Y513768D01*
X579796Y514796D01*
X579791Y514800D01*
Y515000D01*
X579628Y516240D01*
X579149Y517395D01*
X578388Y518388D01*
X578388Y518388D01*
X578388D01*
X578388Y518388D01*
Y518388D01*
X571775Y525000D01*
X576520Y529744D01*
X578009Y529568D01*
X579110Y527772D01*
X580797Y525797D01*
X582772Y524110D01*
X584986Y522753D01*
X587386Y521759D01*
X589911Y521153D01*
X592500Y520949D01*
X595089Y521153D01*
X597614Y521759D01*
X600014Y522753D01*
X601191Y523474D01*
X602500Y522741D01*
Y516750D01*
X602500D01*
X601750D01*
X601439Y516750D01*
X601439Y516750D01*
X601439Y516750D01*
X588250D01*
Y503250D01*
X601439D01*
X602500Y502189D01*
Y497607D01*
X427324D01*
X426591Y498916D01*
X427247Y499986D01*
X428241Y502386D01*
X428847Y504911D01*
X429051Y507500D01*
X428847Y510089D01*
X428241Y512614D01*
X427247Y515014D01*
X425890Y517228D01*
X424203Y519203D01*
X422228Y520890D01*
X420014Y522247D01*
X417615Y523241D01*
X415089Y523847D01*
X412500Y524051D01*
X409911Y523847D01*
X407385Y523241D01*
X404986Y522247D01*
X403809Y521526D01*
X402500Y522259D01*
Y622741D01*
X403809Y623474D01*
X404986Y622753D01*
X407385Y621759D01*
X409911Y621153D01*
X412500Y620949D01*
X415089Y621153D01*
X417615Y621759D01*
X420014Y622753D01*
X422228Y624110D01*
X424203Y625797D01*
X425890Y627772D01*
X427247Y629986D01*
X428241Y632385D01*
X428847Y634911D01*
X429051Y637500D01*
X428847Y640089D01*
X428241Y642615D01*
X427247Y645014D01*
X425890Y647228D01*
X426065Y647607D01*
X602500D01*
Y638374D01*
D02*
G37*
%LPC*%
G36*
X446800Y640500D02*
X430800D01*
Y624500D01*
X446800D01*
Y640500D01*
D02*
G37*
G36*
X596750Y589250D02*
X583250D01*
Y575750D01*
X596750D01*
Y589250D01*
D02*
G37*
G36*
X500000Y641783D02*
X498677Y641652D01*
X497404Y641266D01*
X496232Y640640D01*
X495204Y639796D01*
X494360Y638768D01*
X493734Y637596D01*
X493348Y636323D01*
X493217Y635000D01*
X493348Y633677D01*
X493734Y632404D01*
X494360Y631232D01*
X495204Y630204D01*
X496232Y629360D01*
X497404Y628734D01*
X498677Y628348D01*
X500000Y628217D01*
X501323Y628348D01*
X502596Y628734D01*
X503768Y629360D01*
X504796Y630204D01*
X505640Y631232D01*
X506266Y632404D01*
X506652Y633677D01*
X506783Y635000D01*
X506652Y636323D01*
X506266Y637596D01*
X505640Y638768D01*
X504796Y639796D01*
X503768Y640640D01*
X502596Y641266D01*
X501323Y641652D01*
X500000Y641783D01*
D02*
G37*
G36*
X581750Y641750D02*
X568250D01*
Y628250D01*
X581750D01*
Y641750D01*
D02*
G37*
G36*
X486750D02*
X473250D01*
Y628250D01*
X486750D01*
Y641750D01*
D02*
G37*
%LPD*%
D10*
X532500Y527500D02*
X567500D01*
X575000Y557500D02*
X580000Y562500D01*
X590000D01*
X575000Y535000D02*
Y557500D01*
X567500Y527500D02*
X575000Y535000D01*
X505000Y582500D02*
X530000Y607500D01*
X505000Y532500D02*
Y582500D01*
X447500Y522500D02*
X495000D01*
X440000Y515000D02*
X447500Y522500D01*
X530000Y607500D02*
X535000D01*
X495000Y522500D02*
X505000Y532500D01*
X440000Y510000D02*
Y515000D01*
X510000Y577500D02*
X530000Y597500D01*
X510000Y530000D02*
Y577500D01*
X497500Y517500D02*
X510000Y530000D01*
X487500Y517500D02*
X497500D01*
X485000Y515000D02*
X487500Y517500D01*
X485000Y510000D02*
Y515000D01*
X530000Y597500D02*
X535000D01*
X530000Y510000D02*
Y515000D01*
X515000Y572500D02*
X530000Y587500D01*
X515000Y530000D02*
X530000Y515000D01*
X515000Y530000D02*
Y572500D01*
X530000Y587500D02*
X535000D01*
X575000Y510000D02*
Y515000D01*
X530000Y522500D02*
X567500D01*
X575000Y515000D01*
X520000Y532500D02*
X530000Y522500D01*
X520000Y532500D02*
Y567500D01*
X530000Y577500D01*
X535000D01*
X525000Y535000D02*
Y562500D01*
X530000Y567500D02*
X535000D01*
X525000Y562500D02*
X530000Y567500D01*
X525000Y535000D02*
X532500Y527500D01*
D11*
X452500Y632500D02*
Y645000D01*
X450000Y500000D02*
Y510000D01*
X540000Y500000D02*
Y510000D01*
X585000Y500000D02*
Y510000D01*
X495000Y500000D02*
Y510000D01*
X450000Y500000D02*
X585000D01*
X567500Y585000D02*
X580000Y572500D01*
X590000D01*
X490000Y635000D02*
Y645000D01*
X537500Y635000D02*
Y645000D01*
X452500D02*
X585000D01*
X567500Y585000D02*
Y610000D01*
X585000Y627500D01*
Y645000D01*
X527500Y630000D02*
Y635000D01*
Y630000D02*
X535000Y622500D01*
X542500D01*
X545000Y620000D01*
Y607500D02*
Y620000D01*
D12*
X567343Y537500D02*
D03*
X567500Y602500D02*
D03*
X535000Y577500D02*
D03*
X545000D02*
D03*
Y587500D02*
D03*
X535000Y607500D02*
D03*
X545000Y597500D02*
D03*
X535000D02*
D03*
Y587500D02*
D03*
X545000Y567500D02*
D03*
X535000D02*
D03*
X545000Y557500D02*
D03*
X535000D02*
D03*
X545000Y547500D02*
D03*
X535000D02*
D03*
X545000Y537500D02*
D03*
X535000D02*
D03*
X450000Y510000D02*
D03*
X440000D02*
D03*
X495000D02*
D03*
X485000D02*
D03*
X540000D02*
D03*
X530000D02*
D03*
X585000D02*
D03*
X575000D02*
D03*
X590000Y572500D02*
D03*
Y562500D02*
D03*
X585000Y635000D02*
D03*
X595000D02*
D03*
X537500D02*
D03*
X547500D02*
D03*
X490000D02*
D03*
X500000D02*
D03*
D13*
X557500Y537500D02*
D03*
Y602500D02*
D03*
X545000Y607500D02*
D03*
X590000Y582500D02*
D03*
D14*
X412500Y637500D02*
D03*
Y507500D02*
D03*
X592500Y537500D02*
D03*
Y607500D02*
D03*
D15*
X438800Y632500D02*
D03*
D16*
X452500D02*
D03*
D17*
X460000Y510000D02*
D03*
X505000D02*
D03*
X550000D02*
D03*
X595000D02*
D03*
X575000Y635000D02*
D03*
X527500D02*
D03*
X480000D02*
D03*
M02*
