%FSLAX25Y25*%
%MOIN*%
G70*
G01*
G75*
G04 Layer_Color=65535*
%ADD10C,0.02500*%
%ADD11C,0.05000*%
%ADD12C,0.06500*%
%ADD13R,0.06500X0.06500*%
%ADD14C,0.16500*%
%ADD15R,0.09000X0.09000*%
%ADD16C,0.09000*%
%ADD17R,0.06500X0.06500*%
%ADD18C,0.01000*%
%ADD19C,0.01200*%
D18*
X557500Y597500D02*
G03*
X567500Y597500I5000J5000D01*
G01*
Y607500D02*
G03*
X557500Y607500I-5000J-5000D01*
G01*
X424500Y637500D02*
G03*
X424500Y637500I-12000J0D01*
G01*
Y507500D02*
G03*
X424500Y507500I-12000J0D01*
G01*
X604500Y537500D02*
G03*
X604500Y537500I-12000J0D01*
G01*
Y607500D02*
G03*
X604500Y607500I-12000J0D01*
G01*
X552579Y537500D02*
X553563D01*
X552579D02*
Y580807D01*
X572264D01*
Y537500D02*
Y580807D01*
X571279Y537500D02*
X572264D01*
X568327Y543405D02*
Y547342D01*
X566358Y545374D02*
X570295D01*
X400000Y495000D02*
X605000D01*
Y650000D01*
X400000D02*
X605000D01*
X400000Y495000D02*
Y650000D01*
X431300Y620000D02*
X438800D01*
X431300D02*
Y632500D01*
Y645000D02*
X459800D01*
Y620000D02*
Y645000D01*
X438800Y620000D02*
X459800D01*
X431300Y632500D02*
Y645000D01*
X400000Y557500D02*
X435000D01*
Y587500D01*
X400000D02*
X435000D01*
X400000Y612500D02*
X550000D01*
X400000Y532500D02*
Y612500D01*
Y532500D02*
X550000D01*
Y612500D01*
X435000Y520000D02*
Y525000D01*
X465000D01*
Y520000D02*
Y525000D01*
X460000Y520000D02*
X470000D01*
Y500000D02*
Y520000D01*
X430000Y500000D02*
X470000D01*
X430000Y520000D02*
X460000D01*
X430000Y500000D02*
Y520000D01*
X480000D02*
Y525000D01*
X510000D01*
Y520000D02*
Y525000D01*
X505000Y520000D02*
X515000D01*
Y500000D02*
Y520000D01*
X475000Y500000D02*
X515000D01*
X475000Y520000D02*
X505000D01*
X475000Y500000D02*
Y520000D01*
X525000D02*
Y525000D01*
X555000D01*
Y520000D02*
Y525000D01*
X550000Y520000D02*
X560000D01*
Y500000D02*
Y520000D01*
X520000Y500000D02*
X560000D01*
X520000Y520000D02*
X550000D01*
X520000Y500000D02*
Y520000D01*
X570000D02*
Y525000D01*
X600000D01*
Y520000D02*
Y525000D01*
X595000Y520000D02*
X605000D01*
Y500000D02*
Y520000D01*
X565000Y500000D02*
X605000D01*
X565000Y520000D02*
X595000D01*
X565000Y500000D02*
Y520000D01*
X575000Y557500D02*
X580000D01*
X575000D02*
Y587500D01*
X580000D01*
Y582500D02*
Y592500D01*
X600000D01*
Y552500D02*
Y592500D01*
X580000Y552500D02*
Y582500D01*
Y552500D02*
X600000D01*
Y620000D02*
Y625000D01*
X570000Y620000D02*
X600000D01*
X570000D02*
Y625000D01*
X565000D02*
X575000D01*
X565000D02*
Y645000D01*
X605000D01*
X575000Y625000D02*
X605000D01*
Y645000D01*
X552500Y620000D02*
Y625000D01*
X522500Y620000D02*
X552500D01*
X522500D02*
Y625000D01*
X517500D02*
X527500D01*
X517500D02*
Y645000D01*
X557500D01*
X527500Y625000D02*
X557500D01*
Y645000D01*
X505000Y620000D02*
Y625000D01*
X475000Y620000D02*
X505000D01*
X475000D02*
Y625000D01*
X470000D02*
X480000D01*
X470000D02*
Y645000D01*
X510000D01*
X480000Y625000D02*
X510000D01*
Y645000D01*
X572500Y602498D02*
Y597500D01*
X574999D01*
X575832Y598333D01*
Y601665D01*
X574999Y602498D01*
X572500D01*
X577498Y597500D02*
X579165D01*
X578331D01*
Y602498D01*
X577498Y601665D01*
X558332Y586665D02*
X557499Y587498D01*
X555833D01*
X555000Y586665D01*
Y583333D01*
X555833Y582500D01*
X557499D01*
X558332Y583333D01*
X559998Y582500D02*
X561664D01*
X560831D01*
Y587498D01*
X559998Y586665D01*
X463332Y532498D02*
X461666D01*
X462499D01*
Y528333D01*
X461666Y527500D01*
X460833D01*
X460000Y528333D01*
X464998Y527500D02*
X466665D01*
X465831D01*
Y532498D01*
X464998Y531665D01*
X508332Y532498D02*
X506666D01*
X507499D01*
Y528333D01*
X506666Y527500D01*
X505833D01*
X505000Y528333D01*
X513331Y527500D02*
X509998D01*
X513331Y530832D01*
Y531665D01*
X512498Y532498D01*
X510831D01*
X509998Y531665D01*
X553332Y532498D02*
X551666D01*
X552499D01*
Y528333D01*
X551666Y527500D01*
X550833D01*
X550000Y528333D01*
X554998Y531665D02*
X555831Y532498D01*
X557498D01*
X558331Y531665D01*
Y530832D01*
X557498Y529999D01*
X556665D01*
X557498D01*
X558331Y529166D01*
Y528333D01*
X557498Y527500D01*
X555831D01*
X554998Y528333D01*
X573332Y532498D02*
X571666D01*
X572499D01*
Y528333D01*
X571666Y527500D01*
X570833D01*
X570000Y528333D01*
X577498Y527500D02*
Y532498D01*
X574998Y529999D01*
X578331D01*
X567502Y585832D02*
Y584166D01*
Y584999D01*
X571667D01*
X572500Y584166D01*
Y583333D01*
X571667Y582500D01*
X567502Y590831D02*
Y587498D01*
X570001D01*
X569168Y589164D01*
Y589998D01*
X570001Y590831D01*
X571667D01*
X572500Y589998D01*
Y588331D01*
X571667Y587498D01*
X571668Y612502D02*
X573334D01*
X572501D01*
Y616667D01*
X573334Y617500D01*
X574167D01*
X575000Y616667D01*
X566669Y612502D02*
X568335Y613335D01*
X570002Y615001D01*
Y616667D01*
X569169Y617500D01*
X567502D01*
X566669Y616667D01*
Y615834D01*
X567502Y615001D01*
X570002D01*
X524168Y615002D02*
X525834D01*
X525001D01*
Y619167D01*
X525834Y620000D01*
X526667D01*
X527500Y619167D01*
X522502Y615002D02*
X519169D01*
Y615835D01*
X522502Y619167D01*
Y620000D01*
X476668Y615002D02*
X478334D01*
X477501D01*
Y619167D01*
X478334Y620000D01*
X479167D01*
X480000Y619167D01*
X475002Y615835D02*
X474169Y615002D01*
X472502D01*
X471669Y615835D01*
Y616668D01*
X472502Y617501D01*
X471669Y618334D01*
Y619167D01*
X472502Y620000D01*
X474169D01*
X475002Y619167D01*
Y618334D01*
X474169Y617501D01*
X475002Y616668D01*
Y615835D01*
X474169Y617501D02*
X472502D01*
X523332Y574998D02*
X521666D01*
X522499D01*
Y570833D01*
X521666Y570000D01*
X520833D01*
X520000Y570833D01*
X524998D02*
X525831Y570000D01*
X527498D01*
X528331Y570833D01*
Y574165D01*
X527498Y574998D01*
X525831D01*
X524998Y574165D01*
Y573332D01*
X525831Y572499D01*
X528331D01*
X441668Y615002D02*
X443334D01*
X442501D01*
Y619167D01*
X443334Y620000D01*
X444167D01*
X445000Y619167D01*
X440002Y620000D02*
X438336D01*
X439169D01*
Y615002D01*
X440002Y615835D01*
X435836D02*
X435003Y615002D01*
X433337D01*
X432504Y615835D01*
Y619167D01*
X433337Y620000D01*
X435003D01*
X435836Y619167D01*
Y615835D01*
X410000Y592500D02*
X412499D01*
X413332Y593333D01*
X412499Y594166D01*
X410833D01*
X410000Y594999D01*
X410833Y595832D01*
X413332D01*
X414998Y590834D02*
Y595832D01*
X417498D01*
X418331Y594999D01*
Y593333D01*
X417498Y592500D01*
X414998D01*
X420830Y595832D02*
X422496D01*
X423329Y594999D01*
Y592500D01*
X420830D01*
X419997Y593333D01*
X420830Y594166D01*
X423329D01*
X428327Y595832D02*
X425828D01*
X424995Y594999D01*
Y593333D01*
X425828Y592500D01*
X428327D01*
X432493D02*
X430827D01*
X429993Y593333D01*
Y594999D01*
X430827Y595832D01*
X432493D01*
X433326Y594999D01*
Y594166D01*
X429993D01*
X434992Y594999D02*
X438324D01*
X442489Y592500D02*
X440823D01*
X439990Y593333D01*
Y594999D01*
X440823Y595832D01*
X442489D01*
X443323Y594999D01*
Y594166D01*
X439990D01*
X444989Y592500D02*
X446655D01*
X445822D01*
Y595832D01*
X444989D01*
X450820Y590834D02*
X451653D01*
X452486Y591667D01*
Y595832D01*
X449987D01*
X449154Y594999D01*
Y593333D01*
X449987Y592500D01*
X452486D01*
X454152Y597498D02*
Y592500D01*
Y594999D01*
X454985Y595832D01*
X456652D01*
X457485Y594999D01*
Y592500D01*
X459984Y596665D02*
Y595832D01*
X459151D01*
X460817D01*
X459984D01*
Y593333D01*
X460817Y592500D01*
X463316D02*
Y593333D01*
X464149D01*
Y592500D01*
X463316D01*
X470814Y595832D02*
X468314D01*
X467481Y594999D01*
Y593333D01*
X468314Y592500D01*
X470814D01*
X473313D02*
X474979D01*
X475812Y593333D01*
Y594999D01*
X474979Y595832D01*
X473313D01*
X472480Y594999D01*
Y593333D01*
X473313Y592500D01*
X477478D02*
Y595832D01*
X478311D01*
X479144Y594999D01*
Y592500D01*
Y594999D01*
X479977Y595832D01*
X480810Y594999D01*
Y592500D01*
X460000Y565832D02*
Y562500D01*
Y564166D01*
X460833Y564999D01*
X461666Y565832D01*
X462499D01*
X467498Y562500D02*
X465831D01*
X464998Y563333D01*
Y564999D01*
X465831Y565832D01*
X467498D01*
X468331Y564999D01*
Y564166D01*
X464998D01*
X469997Y565832D02*
X471663Y562500D01*
X473329Y565832D01*
X474995Y562500D02*
X476661D01*
X475828D01*
Y567498D01*
X474995Y566665D01*
X479160Y562500D02*
Y563333D01*
X479993D01*
Y562500D01*
X479160D01*
X483326Y566665D02*
X484159Y567498D01*
X485825D01*
X486658Y566665D01*
Y563333D01*
X485825Y562500D01*
X484159D01*
X483326Y563333D01*
Y566665D01*
X488324Y562500D02*
X489990D01*
X489157D01*
Y567498D01*
X488324Y566665D01*
X407500Y607498D02*
Y602500D01*
X409999D01*
X410832Y603333D01*
Y604166D01*
X409999Y604999D01*
X407500D01*
X409999D01*
X410832Y605832D01*
Y606665D01*
X409999Y607498D01*
X407500D01*
X412498Y602500D02*
Y607498D01*
X414998D01*
X415831Y606665D01*
Y604999D01*
X414998Y604166D01*
X412498D01*
X414164D02*
X415831Y602500D01*
X417497Y607498D02*
X419163D01*
X418330D01*
Y602500D01*
X417497D01*
X419163D01*
X421662D02*
Y605832D01*
X423328Y607498D01*
X424994Y605832D01*
Y602500D01*
Y604999D01*
X421662D01*
X426660Y602500D02*
Y607498D01*
X429993Y602500D01*
Y607498D01*
X439990Y606665D02*
X439156Y607498D01*
X437490D01*
X436657Y606665D01*
Y603333D01*
X437490Y602500D01*
X439156D01*
X439990Y603333D01*
X444155Y607498D02*
X442489D01*
X441656Y606665D01*
Y603333D01*
X442489Y602500D01*
X444155D01*
X444988Y603333D01*
Y606665D01*
X444155Y607498D01*
X446654D02*
X449986Y602500D01*
Y607498D02*
X446654Y602500D01*
X460832Y605832D02*
X458333D01*
X457500Y604999D01*
Y603333D01*
X458333Y602500D01*
X460832D01*
X470829D02*
X467497D01*
X470829Y605832D01*
Y606665D01*
X469996Y607498D01*
X468330D01*
X467497Y606665D01*
X472495D02*
X473328Y607498D01*
X474994D01*
X475827Y606665D01*
Y603333D01*
X474994Y602500D01*
X473328D01*
X472495Y603333D01*
Y606665D01*
X480826Y602500D02*
X477493D01*
X480826Y605832D01*
Y606665D01*
X479993Y607498D01*
X478327D01*
X477493Y606665D01*
X482492D02*
X483325Y607498D01*
X484991D01*
X485824Y606665D01*
Y603333D01*
X484991Y602500D01*
X483325D01*
X482492Y603333D01*
Y606665D01*
D19*
X461499Y578498D02*
X457500D01*
Y575499D01*
X459499Y576499D01*
X460499D01*
X461499Y575499D01*
Y573500D01*
X460499Y572500D01*
X458500D01*
X457500Y573500D01*
X463498Y577498D02*
X464498Y578498D01*
X466497D01*
X467497Y577498D01*
Y573500D01*
X466497Y572500D01*
X464498D01*
X463498Y573500D01*
Y577498D01*
X473495Y578498D02*
X469496D01*
Y575499D01*
X471495Y576499D01*
X472495D01*
X473495Y575499D01*
Y573500D01*
X472495Y572500D01*
X470496D01*
X469496Y573500D01*
X475494Y572500D02*
X477493D01*
X476494D01*
Y578498D01*
X475494Y577498D01*
X480493Y578498D02*
X484491D01*
Y577498D01*
X480493Y573500D01*
Y572500D01*
X486491Y577498D02*
X487490Y578498D01*
X489490D01*
X490489Y577498D01*
Y576499D01*
X489490Y575499D01*
X490489Y574499D01*
Y573500D01*
X489490Y572500D01*
X487490D01*
X486491Y573500D01*
Y574499D01*
X487490Y575499D01*
X486491Y576499D01*
Y577498D01*
X487490Y575499D02*
X489490D01*
X413999Y545998D02*
X410000D01*
Y542999D01*
X411999D01*
X410000D01*
Y540000D01*
X415998D02*
Y543999D01*
X417997Y545998D01*
X419997Y543999D01*
Y540000D01*
Y542999D01*
X415998D01*
X421996Y545998D02*
Y540000D01*
X424995D01*
X425995Y541000D01*
Y544998D01*
X424995Y545998D01*
X421996D01*
X431993D02*
X427994D01*
Y540000D01*
X431993D01*
X427994Y542999D02*
X429993D01*
X437991Y544998D02*
X436991Y545998D01*
X434992D01*
X433992Y544998D01*
Y541000D01*
X434992Y540000D01*
X436991D01*
X437991Y541000D01*
X439990Y540000D02*
Y543999D01*
X441990Y545998D01*
X443989Y543999D01*
Y540000D01*
Y542999D01*
X439990D01*
X445988Y540000D02*
Y545998D01*
X449987Y540000D01*
Y545998D01*
X451986D02*
Y540000D01*
X454986D01*
X455985Y541000D01*
Y544998D01*
X454986Y545998D01*
X451986D01*
X457984D02*
Y544998D01*
X459984Y542999D01*
X461983Y544998D01*
Y545998D01*
X459984Y542999D02*
Y540000D01*
X469981Y545998D02*
Y540000D01*
X472980D01*
X473979Y541000D01*
Y544998D01*
X472980Y545998D01*
X469981D01*
X475979D02*
X477978D01*
X476978D01*
Y540000D01*
X475979D01*
X477978D01*
X484976Y544998D02*
X483976Y545998D01*
X481977D01*
X480977Y544998D01*
Y543999D01*
X481977Y542999D01*
X483976D01*
X484976Y541999D01*
Y541000D01*
X483976Y540000D01*
X481977D01*
X480977Y541000D01*
X486975Y545998D02*
X490974D01*
X488974D01*
Y540000D01*
X492973D02*
Y545998D01*
X495972D01*
X496972Y544998D01*
Y542999D01*
X495972Y541999D01*
X492973D01*
X494973D02*
X496972Y540000D01*
X501970Y545998D02*
X499971D01*
X498971Y544998D01*
Y541000D01*
X499971Y540000D01*
X501970D01*
X502970Y541000D01*
Y544998D01*
X501970Y545998D01*
M02*
