%FSLAX25Y25*%
%MOIN*%
G70*
G01*
G75*
G04 Layer_Color=48896*
%ADD10C,0.02500*%
%ADD11C,0.05000*%
%ADD12C,0.06500*%
%ADD13R,0.06500X0.06500*%
%ADD14C,0.16500*%
%ADD15R,0.09000X0.09000*%
%ADD16C,0.09000*%
%ADD17R,0.06500X0.06500*%
%ADD18C,0.01000*%
%ADD19C,0.01200*%
%ADD20C,0.07300*%
%ADD21R,0.07300X0.07300*%
%ADD22C,0.17300*%
%ADD23R,0.09800X0.09800*%
%ADD24C,0.09800*%
%ADD25R,0.07300X0.07300*%
D20*
X567343Y537500D02*
D03*
X567500Y602500D02*
D03*
X535000Y577500D02*
D03*
X545000D02*
D03*
Y587500D02*
D03*
X535000Y607500D02*
D03*
X545000Y597500D02*
D03*
X535000D02*
D03*
Y587500D02*
D03*
X545000Y567500D02*
D03*
X535000D02*
D03*
X545000Y557500D02*
D03*
X535000D02*
D03*
X545000Y547500D02*
D03*
X535000D02*
D03*
X545000Y537500D02*
D03*
X535000D02*
D03*
X450000Y510000D02*
D03*
X440000D02*
D03*
X495000D02*
D03*
X485000D02*
D03*
X540000D02*
D03*
X530000D02*
D03*
X585000D02*
D03*
X575000D02*
D03*
X590000Y572500D02*
D03*
Y562500D02*
D03*
X585000Y635000D02*
D03*
X595000D02*
D03*
X537500D02*
D03*
X547500D02*
D03*
X490000D02*
D03*
X500000D02*
D03*
D21*
X557500Y537500D02*
D03*
Y602500D02*
D03*
X545000Y607500D02*
D03*
X590000Y582500D02*
D03*
D22*
X412500Y637500D02*
D03*
Y507500D02*
D03*
X592500Y537500D02*
D03*
Y607500D02*
D03*
D23*
X438800Y632500D02*
D03*
D24*
X452500D02*
D03*
D25*
X460000Y510000D02*
D03*
X505000D02*
D03*
X550000D02*
D03*
X595000D02*
D03*
X575000Y635000D02*
D03*
X527500D02*
D03*
X480000D02*
D03*
M02*
